<?xml version="1.0" standalone="no"?>
<svg xmlns:xlink="http://www.w3.org/1999/xlink" id="wave" style="transform:rotate(0deg); transition: 0.3s" viewBox="0 0 1440 300" version="1.1" xmlns="http://www.w3.org/2000/svg"><defs><linearGradient id="sw-gradient-0" x1="0" x2="0" y1="1" y2="0"><stop stop-color="rgba(93, 16, 122, 1)" offset="0%"/><stop stop-color="rgba(25, 0, 40, 1)" offset="100%"/></linearGradient></defs><path style="transform:translate(0, 0px); opacity:1" fill="url(#sw-gradient-0)" d="M0,60L12.6,70C25.3,80,51,100,76,90C101.1,80,126,40,152,45C176.8,50,202,100,227,105C252.6,110,278,70,303,75C328.4,80,354,130,379,170C404.2,210,429,240,455,220C480,200,505,130,531,115C555.8,100,581,140,606,135C631.6,130,657,80,682,90C707.4,100,733,170,758,195C783.2,220,808,200,834,180C858.9,160,884,140,909,120C934.7,100,960,80,985,75C1010.5,70,1036,80,1061,95C1086.3,110,1112,130,1137,135C1162.1,140,1187,130,1213,150C1237.9,170,1263,220,1288,215C1313.7,210,1339,150,1364,130C1389.5,110,1415,130,1440,115C1465.3,100,1491,50,1516,55C1541.1,60,1566,120,1592,120C1616.8,120,1642,60,1667,70C1692.6,80,1718,160,1743,190C1768.4,220,1794,200,1806,190L1818.9,180L1818.9,300L1806.3,300C1793.7,300,1768,300,1743,300C1717.9,300,1693,300,1667,300C1642.1,300,1617,300,1592,300C1566.3,300,1541,300,1516,300C1490.5,300,1465,300,1440,300C1414.7,300,1389,300,1364,300C1338.9,300,1314,300,1288,300C1263.2,300,1238,300,1213,300C1187.4,300,1162,300,1137,300C1111.6,300,1086,300,1061,300C1035.8,300,1011,300,985,300C960,300,935,300,909,300C884.2,300,859,300,834,300C808.4,300,783,300,758,300C732.6,300,707,300,682,300C656.8,300,632,300,606,300C581.1,300,556,300,531,300C505.3,300,480,300,455,300C429.5,300,404,300,379,300C353.7,300,328,300,303,300C277.9,300,253,300,227,300C202.1,300,177,300,152,300C126.3,300,101,300,76,300C50.5,300,25,300,13,300L0,300Z"/></svg>