<?xml version="1.0" standalone="no"?>
<svg xmlns:xlink="http://www.w3.org/1999/xlink" id="wave" style="transform:rotate(0deg); transition: 0.3s" viewBox="0 0 1440 400" version="1.1" xmlns="http://www.w3.org/2000/svg"><defs><linearGradient id="sw-gradient-0" x1="0" x2="0" y1="1" y2="0"><stop stop-color="rgba(104.341, 17.774, 114.257, 1)" offset="0%"/><stop stop-color="rgba(38.131, 3.095, 43.676, 1)" offset="100%"/></linearGradient></defs><path style="transform:translate(0, 0px); opacity:1" fill="url(#sw-gradient-0)" d="M0,120L12.6,100C25.3,80,51,40,76,60C101.1,80,126,160,152,186.7C176.8,213,202,187,227,193.3C252.6,200,278,240,303,260C328.4,280,354,280,379,260C404.2,240,429,200,455,206.7C480,213,505,267,531,266.7C555.8,267,581,213,606,193.3C631.6,173,657,187,682,180C707.4,173,733,147,758,133.3C783.2,120,808,120,834,146.7C858.9,173,884,227,909,226.7C934.7,227,960,173,985,140C1010.5,107,1036,93,1061,113.3C1086.3,133,1112,187,1137,193.3C1162.1,200,1187,160,1213,160C1237.9,160,1263,200,1288,186.7C1313.7,173,1339,107,1364,93.3C1389.5,80,1415,120,1440,146.7C1465.3,173,1491,187,1516,180C1541.1,173,1566,147,1592,166.7C1616.8,187,1642,253,1667,286.7C1692.6,320,1718,320,1743,286.7C1768.4,253,1794,187,1806,153.3L1818.9,120L1818.9,400L1806.3,400C1793.7,400,1768,400,1743,400C1717.9,400,1693,400,1667,400C1642.1,400,1617,400,1592,400C1566.3,400,1541,400,1516,400C1490.5,400,1465,400,1440,400C1414.7,400,1389,400,1364,400C1338.9,400,1314,400,1288,400C1263.2,400,1238,400,1213,400C1187.4,400,1162,400,1137,400C1111.6,400,1086,400,1061,400C1035.8,400,1011,400,985,400C960,400,935,400,909,400C884.2,400,859,400,834,400C808.4,400,783,400,758,400C732.6,400,707,400,682,400C656.8,400,632,400,606,400C581.1,400,556,400,531,400C505.3,400,480,400,455,400C429.5,400,404,400,379,400C353.7,400,328,400,303,400C277.9,400,253,400,227,400C202.1,400,177,400,152,400C126.3,400,101,400,76,400C50.5,400,25,400,13,400L0,400Z"/></svg>